<?xml version="1.0" encoding="UTF-8"?>
<svg viewBox="0 0 465 300" xmlns="http://www.w3.org/2000/svg" style="width:100%; height:auto;">

  <rect width="465" height="300" fill="#0B0F19"/>

  <g transform="translate(26,32)">
    <circle cx="30" cy="30" r="30" fill="#1F273A" stroke="#4A90E2" stroke-width="2"/>
    <text x="30" y="38" font-size="26" fill="#4A90E2" text-anchor="middle" font-family="Inter, Arial">💬</text>

    <text x="82" y="38" font-family="Inter, Arial" font-size="28" font-weight="700" fill="#FFFFFF">Chattify</text>

    <text x="0" y="110" font-family="Inter, Arial" font-size="30" font-weight="700" fill="#FFFFFF">Real-Time Chat</text>
    <text x="0" y="145" font-family="Inter, Arial" font-size="30" font-weight="700" fill="#FFFFFF">Application</text>

    <text x="0" y="180" font-family="Inter, Arial" font-size="13" fill="#9AA3B8">Fast, secure messaging with typing indicators,</text>
    <text x="0" y="198" font-family="Inter, Arial" font-size="13" fill="#9AA3B8">online status &amp; instant delivery.</text>

    <g transform="translate(0,218)">
      <rect width="200" height="30" rx="6" fill="#1C2333"/>
      <text x="12" y="20" font-family="Inter" font-size="12" fill="#AFC3E0">MERN • Socket.io • WebSockets</text>
    </g>
  </g>

  <g transform="translate(280,28)">
    <rect width="165" height="245" rx="18" fill="#141A28" stroke="#232B3D"/>

    <g font-family="Inter, Arial" font-size="12">
      <rect x="12" y="20" width="140" height="40" rx="10" fill="#1F273A"/>
      <text x="20" y="45" fill="#DDE2EE">Hey! How’s your day?</text>

      <rect x="12" y="80" width="140" height="50" rx="10" fill="#4A90E2"/>
      <text x="22" y="105" fill="#FFFFFF">Pretty good! Working on</text>
      <text x="22" y="121" fill="#FFFFFF">Chattify 🚀</text>

      <rect x="12" y="150" width="140" height="40" rx="10" fill="#1F273A"/>
      <text x="20" y="174" fill="#DDE2EE">Nice! Real-time features?</text>

      <rect x="12" y="210" width="140" height="40" rx="10" fill="#4A90E2"/>
      <text x="22" y="234" fill="#FFFFFF">Yep — Socket.io 🙂</text>
    </g>
  </g>

</svg>
